<svg version="1.2" xmlns="http://www.w3.org/2000/svg" viewBox="0 0 12 12" width="12" height="12">
	<title>Icons8_flat_settings-svg</title>
	<style>
		.s0 { fill: #607d8b } 
		.s1 { fill: #455a64 } 
	</style>
	<path id="Layer" fill-rule="evenodd" class="s0" d="m10.9 7.6c0.1 0.1 0.2 0.2 0.1 0.4l-1.1 1.8c0 0.1-0.2 0.2-0.3 0.1l-1.2-0.6q-0.4 0.4-1 0.6l-0.1 1.4c0 0.1-0.1 0.2-0.2 0.2h-2.2c-0.1 0-0.2-0.1-0.2-0.2l-0.2-1.4q-0.5-0.2-0.9-0.6l-1.3 0.6c-0.1 0.1-0.2 0-0.3-0.1l-1.1-1.9c0-0.1 0-0.2 0.1-0.3l1.2-0.8q-0.1-0.3-0.1-0.6 0-0.2 0.1-0.5l-1.1-0.8c-0.1-0.1-0.2-0.2-0.1-0.3l1.1-1.9c0-0.1 0.2-0.2 0.3-0.1l1.2 0.6q0.4-0.4 1-0.6l0.1-1.3c0-0.2 0.1-0.3 0.3-0.3h2.1c0.1 0 0.2 0.1 0.3 0.3l0.1 1.3q0.5 0.2 0.9 0.6l1.3-0.6c0.1-0.1 0.2 0 0.3 0.1l1.1 1.9c0.1 0.1 0 0.2-0.1 0.3l-1.1 0.8q0 0.3 0.1 0.6-0.1 0.2-0.1 0.5zm-2.4-1.4c0-1.3-1.2-2.5-2.5-2.5-1.4 0-2.5 1.2-2.5 2.5 0 1.4 1.1 2.5 2.5 2.5 1.3 0 2.5-1.1 2.5-2.5z"/>
	<path id="Layer" fill-rule="evenodd" class="s1" d="m6 9.3c-1.7-0.1-3-1.4-3-3.1 0-1.6 1.3-3 3-3 1.7 0 3 1.4 3 3 0 1.7-1.3 3-3 3zm1.3-3c-0.1-0.6-0.6-1.2-1.3-1.2-0.7 0-1.3 0.6-1.3 1.2 0.1 0.7 0.6 1.3 1.3 1.3 0.7 0 1.3-0.6 1.3-1.3z"/>
</svg>