<svg version="1.2" xmlns="http://www.w3.org/2000/svg" viewBox="0 0 600 600" width="600" height="600">
	<title>ProLead-svg</title>
	<style>
		.s0 { fill: #1e415e } 
		.s1 { fill: #8dae25 } 
	</style>
	<path id="Shape 1" class="s0" d="m128.7 129.4c0-2.2 1.8-4 4-4h335.9c2.2 0 4 1.8 4 4v336.1c0 2.2-1.8 4-4 4h-335.9c-2.2 0-4-1.8-4-4z"/>
	<g id="Layer_x0020_1">
		<g id="_375176344">
			<path id="Layer" fill-rule="evenodd" class="s1" d="m465.6 117.9l16.4 16.3v329.3l-16.4 16.3h-329.3l-16.3-16.3v-329.3l16.3-16.3zm-5.9 14.2h-317.5l-8 8.1v317.5l8 8h317.5l8.1-8v-317.5z"/>
			<path id="Layer" class="s1" d="m194.4 125c0 3.9-3.2 7.1-7.2 7.1-3.9 0-7.1-3.2-7.1-7.1v-46.4c0-4 3.2-7.2 7.1-7.2 4 0 7.2 3.2 7.2 7.2z"/>
			<path id="Layer" class="s1" d="m194.4 521.4c0 4-3.2 7.2-7.2 7.2-3.9 0-7.1-3.2-7.1-7.2v-46.4c0-3.9 3.2-7.1 7.1-7.1 4 0 7.2 3.2 7.2 7.1z"/>
			<path id="Layer" class="s1" d="m248.6 125c0 3.9-3.2 7.1-7.2 7.1-3.9 0-7.1-3.2-7.1-7.1v-46.4c0-4 3.2-7.2 7.1-7.2 4 0 7.2 3.2 7.2 7.2z"/>
			<path id="Layer" class="s1" d="m248.6 521.4c0 4-3.2 7.2-7.2 7.2-3.9 0-7.1-3.2-7.1-7.2v-46.4c0-3.9 3.2-7.1 7.1-7.1 4 0 7.2 3.2 7.2 7.1z"/>
			<path id="Layer" class="s1" d="m302.8 125c0 3.9-3.2 7.1-7.2 7.1-3.9 0-7.1-3.2-7.1-7.1v-46.4c0-4 3.2-7.2 7.1-7.2 4 0 7.2 3.2 7.2 7.2z"/>
			<path id="Layer" class="s1" d="m302.8 521.4c0 4-3.2 7.2-7.2 7.2-3.9 0-7.1-3.2-7.1-7.2v-46.4c0-3.9 3.2-7.1 7.1-7.1 4 0 7.2 3.2 7.2 7.1z"/>
			<path id="Layer" class="s1" d="m357 125c0 3.9-3.3 7.1-7.2 7.1-3.9 0-7.1-3.2-7.1-7.1v-46.4c0-4 3.2-7.2 7.1-7.2 4 0 7.2 3.2 7.2 7.2z"/>
			<path id="Layer" class="s1" d="m357 521.4c0 4-3.3 7.2-7.2 7.2-3.9 0-7.1-3.2-7.1-7.2v-46.4c0-3.9 3.2-7.1 7.1-7.1 4 0 7.2 3.2 7.2 7.1z"/>
			<path id="Layer" class="s1" d="m411.2 125c0 3.9-3.3 7.1-7.2 7.1-3.9 0-7.1-3.2-7.1-7.1v-46.4c0-4 3.2-7.2 7.1-7.2 3.9 0 7.2 3.2 7.2 7.2z"/>
			<path id="Layer" class="s1" d="m411.2 521.4c0 4-3.3 7.2-7.2 7.2-3.9 0-7.1-3.2-7.1-7.2v-46.4c0-3.9 3.2-7.1 7.1-7.1 3.9 0 7.2 3.2 7.2 7.1z"/>
			<path id="Layer" class="s1" d="m77.4 197.4c-3.9 0-7.1-3.2-7.1-7.1 0-4 3.2-7.2 7.1-7.2h46.4c4 0 7.2 3.2 7.2 7.2 0 3.9-3.2 7.1-7.2 7.1z"/>
			<path id="Layer" class="s1" d="m77.4 251.6c-3.9 0-7.1-3.2-7.1-7.1 0-4 3.2-7.2 7.1-7.2h46.4c4 0 7.2 3.2 7.2 7.2 0 3.9-3.2 7.1-7.2 7.1z"/>
			<path id="Layer" class="s1" d="m77.4 305.8c-3.9 0-7.1-3.2-7.1-7.1 0-4 3.2-7.2 7.1-7.2h46.4c4 0 7.2 3.2 7.2 7.2 0 3.9-3.2 7.1-7.2 7.1z"/>
			<path id="Layer" class="s1" d="m77.4 360c-3.9 0-7.1-3.2-7.1-7.1 0-4 3.2-7.2 7.1-7.2h46.4c4 0 7.2 3.2 7.2 7.2 0 3.9-3.2 7.1-7.2 7.1z"/>
			<path id="Layer" class="s1" d="m77.4 414.2c-3.9 0-7.1-3.2-7.1-7.1 0-4 3.2-7.2 7.1-7.2h46.4c4 0 7.2 3.2 7.2 7.2 0 3.9-3.2 7.1-7.2 7.1z"/>
			<path id="Layer" class="s1" d="m476.2 197.4c-4 0-7.2-3.2-7.2-7.1 0-4 3.2-7.2 7.2-7.2h46.4c3.9 0 7.1 3.2 7.1 7.2 0 3.9-3.2 7.1-7.1 7.1z"/>
			<path id="Layer" class="s1" d="m476.2 251.6c-4 0-7.2-3.2-7.2-7.1 0-4 3.2-7.2 7.2-7.2h46.4c3.9 0 7.1 3.2 7.1 7.2 0 3.9-3.2 7.1-7.1 7.1z"/>
			<path id="Layer" class="s1" d="m476.2 305.8c-4 0-7.2-3.2-7.2-7.1 0-4 3.2-7.2 7.2-7.2h46.4c3.9 0 7.1 3.2 7.1 7.2 0 3.9-3.2 7.1-7.1 7.1z"/>
			<path id="Layer" class="s1" d="m476.2 360c-4 0-7.2-3.2-7.2-7.1 0-4 3.2-7.2 7.2-7.2h46.4c3.9 0 7.1 3.2 7.1 7.2 0 3.9-3.2 7.1-7.1 7.1z"/>
			<path id="Layer" class="s1" d="m476.2 414.2c-4 0-7.2-3.2-7.2-7.1 0-4 3.2-7.2 7.2-7.2h46.4c3.9 0 7.1 3.2 7.1 7.2 0 3.9-3.2 7.1-7.1 7.1z"/>
		</g>
		<path id="lock-open" fill-rule="evenodd" class="s1" d="m279.7 237.2c0-16.9-13.7-30.6-30.5-30.6-16.9 0-30.5 13.7-30.5 30.6v27.1c0 5.5-4.6 10.2-10.2 10.2-5.6 0-10.2-4.6-10.2-10.2v-27.1c0-28.1 22.8-50.9 50.9-50.9 28 0 50.9 22.8 50.9 50.9v50.8h81.3c11.3 0 20.4 9.2 20.4 20.4v67.7c0 11.4-9.1 20.4-20.4 20.4h-101.6c-11.3 0-20.4-9.1-20.4-20.4v-67.7c0-11.3 9.1-20.4 20.3-20.4zm47.5 104.5v17.6c0 1.9 1.6 3.4 3.4 3.4 1.9 0 3.4-1.6 3.4-3.4v-17.6c3.9-1.3 6.7-5.1 6.7-9.5 0-5.7-4.5-10.2-10.1-10.2-5.6 0-10.2 4.5-10.2 10.2 0 4.4 2.8 8.2 6.8 9.5z"/>
	</g>
</svg>