<svg version="1.2" xmlns="http://www.w3.org/2000/svg" viewBox="0 0 16 16" width="16" height="16">
	<title>ProLead</title>
	<style>
		.s0 { fill: #000000 } 
	</style>
	<path id="Shape 1" fill-rule="evenodd" class="s0" d="m3.4 3.3h9.2v9.2h-9.2zm3.7 4.5c-0.2 0.2-0.2 0.3-0.2 0.3v2c0 0 0.1 0.2 0.2 0.3 0.1 0.1 0.3 0.1 0.3 0.1h2.9c0 0 0.2 0 0.3-0.2 0.1-0.1 0.1-0.2 0.1-0.2v-2c0 0 0-0.1-0.1-0.3-0.2-0.1-0.4-0.1-0.4-0.1h-2.2v-1.6c0 0-0.1-1.1-1.4-1.1-1.2 0-1.3 1.2-1.3 1.2v0.9c0 0 0 0.2 0.3 0.2 0.2 0 0.2-0.2 0.2-0.2v-0.9c0 0 0.1-0.7 0.8-0.7 0.7 0 0.9 0.7 0.9 0.7v1.5c0 0-0.2-0.1-0.4 0.1zm1.8 1.3v0.4c0 0 0 0.1-0.1 0.1-0.1 0-0.1 0-0.1 0v-0.5c0 0-0.2-0.1-0.2-0.3 0-0.2 0.2-0.2 0.3-0.2 0.1 0 0.3 0 0.3 0.2 0 0.2-0.2 0.3-0.2 0.3z"/>
	<g id="Layer_x0020_1">
		<g id="_375176344">
			<path id="Layer" fill-rule="evenodd" class="s0" d="m13 2.5l0.5 0.4v10.1l-0.4 0.4-0.1 0.1h-10l-0.5-0.5v-10.1h0.1l0.4-0.4zm-0.2 0.4h-9.6l-0.3 0.2v9.7l0.3 0.2h9.6l0.3-0.2v-9.7z"/>
			<path id="Layer" class="s0" d="m4.8 2.7c0 0.1-0.1 0.2-0.2 0.2-0.2 0-0.3-0.1-0.3-0.2v-1.4c0-0.2 0.1-0.3 0.3-0.3 0.1 0 0.2 0.1 0.2 0.3z"/>
			<path id="Layer" class="s0" d="m4.8 14.7c0 0.2-0.1 0.3-0.2 0.3-0.2 0-0.3-0.1-0.3-0.3v-1.4c0-0.1 0.1-0.2 0.3-0.2 0.1 0 0.2 0.1 0.2 0.2z"/>
			<path id="Layer" class="s0" d="m6.4 2.7c0 0.1-0.1 0.2-0.2 0.2-0.1 0-0.2-0.1-0.2-0.2v-1.4c0-0.2 0.1-0.3 0.2-0.3 0.1 0 0.2 0.1 0.2 0.3z"/>
			<path id="Layer" class="s0" d="m6.4 14.7c0 0.2-0.1 0.3-0.2 0.3-0.1 0-0.2-0.1-0.2-0.3v-1.4c0-0.1 0.1-0.2 0.2-0.2 0.1 0 0.2 0.1 0.2 0.2z"/>
			<path id="Layer" class="s0" d="m8.1 2.7c0 0.1-0.1 0.2-0.2 0.2-0.2 0-0.3-0.1-0.3-0.2v-1.4c0-0.2 0.1-0.3 0.3-0.3 0.1 0 0.2 0.1 0.2 0.3z"/>
			<path id="Layer" class="s0" d="m8.1 14.7c0 0.2-0.1 0.3-0.2 0.3-0.2 0-0.3-0.1-0.3-0.3v-1.4c0-0.1 0.1-0.2 0.3-0.2 0.1 0 0.2 0.1 0.2 0.2z"/>
			<path id="Layer" class="s0" d="m9.7 2.7c0 0.1-0.1 0.2-0.2 0.2-0.1 0-0.2-0.1-0.2-0.2v-1.4c0-0.2 0.1-0.3 0.2-0.3 0.1 0 0.2 0.1 0.2 0.3z"/>
			<path id="Layer" class="s0" d="m9.7 14.7c0 0.2-0.1 0.3-0.2 0.3-0.1 0-0.2-0.1-0.2-0.3v-1.4c0-0.1 0.1-0.2 0.2-0.2 0.1 0 0.2 0.1 0.2 0.2z"/>
			<path id="Layer" class="s0" d="m11.4 2.7c0 0.1-0.1 0.2-0.2 0.2-0.2 0-0.2-0.1-0.2-0.2v-1.4c0-0.2 0-0.3 0.2-0.3 0.1 0 0.2 0.1 0.2 0.3z"/>
			<path id="Layer" class="s0" d="m11.4 14.7c0 0.2-0.1 0.3-0.2 0.3-0.2 0-0.2-0.1-0.2-0.3v-1.4c0-0.1 0-0.2 0.2-0.2 0.1 0 0.2 0.1 0.2 0.2z"/>
			<path id="Layer" class="s0" d="m1.2 4.9c-0.1 0-0.2-0.1-0.2-0.2 0-0.2 0.1-0.3 0.2-0.3h1.4c0.2 0 0.2 0.1 0.2 0.3 0 0.1 0 0.2-0.2 0.2z"/>
			<path id="Layer" class="s0" d="m1.2 6.5c-0.1 0-0.2-0.1-0.2-0.2 0-0.1 0.1-0.2 0.2-0.2h1.4c0.2 0 0.2 0.1 0.2 0.2 0 0.1 0 0.2-0.2 0.2z"/>
			<path id="Layer" class="s0" d="m1.2 8.2c-0.1 0-0.2-0.1-0.2-0.2 0-0.2 0.1-0.3 0.2-0.3h1.4c0.2 0 0.2 0.1 0.2 0.3 0 0.1 0 0.2-0.2 0.2z"/>
			<path id="Layer" class="s0" d="m1.2 9.8c-0.1 0-0.2-0.1-0.2-0.2 0-0.1 0.1-0.2 0.2-0.2h1.4c0.2 0 0.2 0.1 0.2 0.2 0 0.1 0 0.2-0.2 0.2z"/>
			<path id="Layer" class="s0" d="m1.2 11.5c-0.1 0-0.2-0.1-0.2-0.2 0-0.2 0.1-0.3 0.2-0.3h1.4c0.2 0 0.2 0.1 0.2 0.3 0 0.1 0 0.2-0.2 0.2z"/>
			<path id="Layer" class="s0" d="m13.4 4.9c-0.2 0-0.2-0.1-0.2-0.2 0-0.2 0-0.3 0.2-0.3h1.4c0.1 0 0.2 0.1 0.2 0.3 0 0.1-0.1 0.2-0.2 0.2z"/>
			<path id="Layer" class="s0" d="m13.4 6.5c-0.2 0-0.2-0.1-0.2-0.2 0-0.1 0-0.2 0.2-0.2h1.4c0.1 0 0.2 0.1 0.2 0.2 0 0.1-0.1 0.2-0.2 0.2z"/>
			<path id="Layer" class="s0" d="m13.4 8.2c-0.2 0-0.2-0.1-0.2-0.2 0-0.2 0-0.3 0.2-0.3h1.4c0.1 0 0.2 0.1 0.2 0.3 0 0.1-0.1 0.2-0.2 0.2z"/>
			<path id="Layer" class="s0" d="m13.4 9.8c-0.2 0-0.2-0.1-0.2-0.2 0-0.1 0-0.2 0.2-0.2h1.4c0.1 0 0.2 0.1 0.2 0.2 0 0.1-0.1 0.2-0.2 0.2z"/>
			<path id="Layer" class="s0" d="m13.4 11.5c-0.2 0-0.2-0.1-0.2-0.2 0-0.2 0-0.3 0.2-0.3h1.4c0.1 0 0.2 0.1 0.2 0.3 0 0.1-0.1 0.2-0.2 0.2z"/>
		</g>
	</g>
</svg>